<svg version="1.1" id="Layer_1" xmlns="http://www.w3.org/2000/svg" xmlns:xlink="http://www.w3.org/1999/xlink" x="0px" y="0px"
	 width="100%" viewBox="0 0 704 704" enable-background="new 0 0 704 704" xml:space="preserve">
<path fill="#FBFBFB" opacity="1.000000" stroke="none" 
	d="
M1.000000,703.000000 
	C1.000000,469.046204 1.000000,235.092422 1.000000,1.069312 
	C235.574097,1.069312 470.148224,1.069312 705.000000,1.069312 
	C705.000000,234.361298 705.000000,467.722687 704.675781,701.555664 
	C703.556885,702.364258 702.762146,702.701233 701.507324,703.026001 
	C467.698151,703.009216 234.349075,703.004639 1.000000,703.000000 
M207.948029,525.294006 
	C205.643677,529.646301 208.712601,532.127441 211.301559,534.696533 
	C250.178284,573.275452 289.075226,611.833923 327.957825,650.406921 
	C334.578735,656.975098 341.135712,663.607605 347.759399,670.172974 
	C351.720337,674.099060 353.262421,674.059875 357.294952,670.138611 
	C368.834900,658.917297 380.490295,647.811890 391.892853,636.452637 
	C426.344513,602.132080 460.674255,567.689087 495.134064,533.376770 
	C497.922180,530.600525 498.791229,527.982178 497.067413,524.005127 
	C496.496674,522.453796 496.354706,520.473206 495.293274,519.413147 
	C454.623199,478.797333 413.876251,438.258453 373.118408,397.730591 
	C366.328552,390.979065 359.442383,384.324371 352.065338,377.100708 
	C351.185120,378.338806 350.706238,379.265076 350.002686,379.965759 
	C316.949951,412.885712 283.884186,445.792572 250.804565,478.685547 
	C236.983627,492.428497 223.126312,506.134918 209.292450,519.864929 
	C207.945389,521.201904 205.811569,522.410950 207.948029,525.294006 
M667.957642,348.899323 
	C666.993103,347.619537 666.167542,346.200348 665.043945,345.080139 
	C626.122803,306.277344 587.146423,267.529999 548.249817,228.702637 
	C539.795410,220.263275 531.612610,211.551910 522.637878,202.276642 
	C507.429230,217.721619 493.160370,232.400116 478.684814,246.871841 
	C452.185486,273.364166 425.527466,299.697693 399.016998,326.178864 
	C391.524078,333.663544 384.313751,341.431061 376.855652,349.837891 
	C375.139709,353.872070 376.141663,356.947144 379.385406,360.023193 
	C387.313751,367.541595 394.908112,375.412170 402.637329,383.140564 
	C439.265167,419.764282 475.888977,456.392029 512.535461,492.997070 
	C514.054016,494.513855 515.703796,495.928101 517.431885,497.200836 
	C523.116699,501.387421 524.207520,501.281830 529.166748,496.323914 
	C562.305603,463.193970 595.440552,430.060181 628.576599,396.927429 
	C640.992554,384.512695 653.324219,372.011841 665.880493,359.740692 
	C669.139832,356.555359 669.909302,353.467438 667.957642,348.899323 
M326.073090,349.000702 
	C325.333282,347.818573 324.776642,346.456238 323.821838,345.485565 
	C319.735138,341.330933 315.505798,337.317139 311.373749,333.206482 
	C273.348206,295.377563 235.311020,257.560242 197.336945,219.679672 
	C191.933899,214.289902 186.850449,208.579758 180.662689,202.001068 
	C178.870193,204.470367 177.978760,206.113083 176.712128,207.380966 
	C158.581818,225.529266 140.413239,243.639374 122.229301,261.733978 
	C94.011841,289.812775 65.755707,317.852844 37.624039,346.017242 
	C36.556610,347.085938 36.616398,349.280487 35.397205,351.103943 
	C32.167156,354.577362 34.497883,357.015991 36.941895,359.442352 
	C83.176956,405.343750 129.406647,451.250549 175.651642,497.141907 
	C179.862854,501.320953 182.222702,501.259918 186.546417,496.942841 
	C202.985779,480.528839 219.345779,464.034821 235.854782,447.691284 
	C247.965790,435.701569 260.349152,423.986908 272.456879,411.993927 
	C289.730133,394.884430 306.811646,377.581299 324.097900,360.485077 
	C327.505707,357.114746 329.054688,353.905182 326.073090,349.000702 
M207.367294,182.113937 
	C204.018753,185.909317 206.825287,188.326767 209.314789,190.816010 
	C251.586792,233.084106 293.844940,275.366089 336.152344,317.598694 
	C340.259979,321.699066 344.466278,325.763611 349.061707,329.275757 
	C350.533508,330.400604 353.869690,330.539398 355.540070,329.632416 
	C358.526550,328.010803 361.043854,325.400787 363.500977,322.947235 
	C407.333557,279.178436 451.102020,235.345306 494.978851,191.620941 
	C498.442505,188.169296 499.946259,184.699921 498.031921,179.371674 
	C497.508209,178.732147 497.035919,178.041031 496.453430,177.460480 
	C449.499237,130.662064 402.537109,83.871597 355.569397,37.086750 
	C354.630829,36.151829 353.619476,35.290005 352.149994,33.943027 
	C346.778320,39.470978 341.534637,45.018871 336.129852,50.405090 
	C293.892120,92.497902 251.639969,134.576340 209.307419,176.573715 
	C207.497528,178.369278 207.024063,179.833252 207.367294,182.113937 
z"/>
<path fill="#BABABA" opacity="1.000000" stroke="none" 
	d="
M1.000002,703.500000 
	C234.349075,703.004639 467.698151,703.009216 701.524780,703.352295 
	C702.001526,704.127258 702.000793,704.563599 702.000000,705.000000 
	C469.833344,705.000000 237.666672,705.001892 5.500008,704.958740 
	C3.999949,704.958435 2.500003,704.333313 1.000002,703.500000 
z"/>
<path fill="#E0E0E0" opacity="1.000000" stroke="none" 
	d="
M702.500000,705.000000 
	C702.000793,704.563599 702.001526,704.127258 701.984802,703.364502 
	C702.762146,702.701233 703.556885,702.364258 704.675781,702.013672 
	C704.736694,703.268921 706.085022,705.612244 702.500000,705.000000 
z"/>
<path fill="#010101" opacity="1.000000" stroke="none" 
	d="
M208.117218,181.963638 
	C207.024063,179.833252 207.497528,178.369278 209.307419,176.573715 
	C251.639969,134.576340 293.892120,92.497902 336.129852,50.405090 
	C341.534637,45.018871 346.778320,39.470978 352.149994,33.943027 
	C353.619476,35.290005 354.630829,36.151829 355.569397,37.086750 
	C402.537109,83.871597 449.499237,130.662064 496.453430,177.460480 
	C497.035919,178.041031 497.508209,178.732147 497.767853,179.837799 
	C497.005981,180.877090 496.508179,181.450241 495.684937,182.108170 
	C447.822632,229.582916 400.285767,276.972900 352.641357,324.470123 
	C351.230408,323.137909 350.123230,322.140106 349.068451,321.089752 
	C306.441345,278.639893 263.827332,236.176895 221.182190,193.745193 
	C217.209076,189.791962 213.042664,186.033005 208.763092,182.092987 
	C208.560181,182.002106 208.117218,181.963638 208.117218,181.963638 
z"/>
<path fill="#010101" opacity="1.000000" stroke="none" 
	d="
M36.150917,350.950409 
	C36.616398,349.280487 36.556610,347.085938 37.624039,346.017242 
	C65.755707,317.852844 94.011841,289.812775 122.229301,261.733978 
	C140.413239,243.639374 158.581818,225.529266 176.712128,207.380966 
	C177.978760,206.113083 178.870193,204.470367 180.662689,202.001068 
	C186.850449,208.579758 191.933899,214.289902 197.336945,219.679672 
	C235.311020,257.560242 273.348206,295.377563 311.373749,333.206482 
	C315.505798,337.317139 319.735138,341.330933 323.821838,345.485565 
	C324.776642,346.456238 325.333282,347.818573 325.659790,349.460632 
	C324.711090,350.579865 324.175690,351.239197 323.336945,352.011047 
	C275.732574,399.206970 228.431503,446.290375 180.961227,493.542206 
	C179.539566,492.236786 178.421936,491.280151 177.381958,490.245514 
	C139.126770,452.187469 100.896393,414.104431 62.616177,376.071564 
	C54.157536,367.667542 45.526051,359.437531 36.776474,351.045288 
	C36.578796,350.963226 36.150917,350.950409 36.150917,350.950409 
z"/>
<path fill="#000000" opacity="1.000000" stroke="none" 
	d="
M376.973816,349.068848 
	C384.313751,341.431061 391.524078,333.663544 399.016998,326.178864 
	C425.527466,299.697693 452.185486,273.364166 478.684814,246.871841 
	C493.160370,232.400116 507.429230,217.721619 522.637878,202.276642 
	C531.612610,211.551910 539.795410,220.263275 548.249817,228.702637 
	C587.146423,267.529999 626.122803,306.277344 665.043945,345.080139 
	C666.167542,346.200348 666.993103,347.619537 667.602844,349.333771 
	C666.751465,350.361633 666.254883,350.955048 665.448242,351.694366 
	C617.683838,399.031738 570.229431,446.223267 522.677673,493.511597 
	C521.351807,492.261932 520.367126,491.376770 519.429749,490.444092 
	C484.471710,455.662109 449.536316,420.857361 414.553558,386.100281 
	C402.749023,374.371887 390.825836,362.762909 378.837402,350.833557 
	C378.136597,350.068115 377.555206,349.568481 376.973816,349.068848 
z"/>
<path fill="#000000" opacity="1.000000" stroke="none" 
	d="
M208.290894,524.578308 
	C205.811569,522.410950 207.945389,521.201904 209.292450,519.864929 
	C223.126312,506.134918 236.983627,492.428497 250.804565,478.685547 
	C283.884186,445.792572 316.949951,412.885712 350.002686,379.965759 
	C350.706238,379.265076 351.185120,378.338806 352.065338,377.100708 
	C359.442383,384.324371 366.328552,390.979065 373.118408,397.730591 
	C413.876251,438.258453 454.623199,478.797333 495.293274,519.413147 
	C496.354706,520.473206 496.496674,522.453796 496.579315,524.422729 
	C448.323181,572.401245 400.555115,619.962158 352.667877,667.641724 
	C351.213440,666.274292 350.104553,665.282776 349.051880,664.234741 
	C320.256683,635.566406 291.498260,606.860962 262.665558,578.230347 
	C244.597595,560.289001 226.419556,542.458557 208.290894,524.578308 
z"/>
<path fill="#CACACA" opacity="1.000000" stroke="none" 
	d="
M208.119461,524.936157 
	C226.419556,542.458557 244.597595,560.289001 262.665558,578.230347 
	C291.498260,606.860962 320.256683,635.566406 349.051880,664.234741 
	C350.104553,665.282776 351.213440,666.274292 352.667877,667.641724 
	C400.555115,619.962158 448.323181,572.401245 496.404510,524.708862 
	C498.791229,527.982178 497.922180,530.600525 495.134064,533.376770 
	C460.674255,567.689087 426.344513,602.132080 391.892853,636.452637 
	C380.490295,647.811890 368.834900,658.917297 357.294952,670.138611 
	C353.262421,674.059875 351.720337,674.099060 347.759399,670.172974 
	C341.135712,663.607605 334.578735,656.975098 327.957825,650.406921 
	C289.075226,611.833923 250.178284,573.275452 211.301559,534.696533 
	C208.712601,532.127441 205.643677,529.646301 208.119461,524.936157 
z"/>
<path fill="#E7E7E7" opacity="1.000000" stroke="none" 
	d="
M496.010376,182.023407 
	C496.508179,181.450241 497.005981,180.877090 497.765930,180.187714 
	C499.946259,184.699921 498.442505,188.169296 494.978851,191.620941 
	C451.102020,235.345306 407.333557,279.178436 363.500977,322.947235 
	C361.043854,325.400787 358.526550,328.010803 355.540070,329.632416 
	C353.869690,330.539398 350.533508,330.400604 349.061707,329.275757 
	C344.466278,325.763611 340.259979,321.699066 336.152344,317.598694 
	C293.844940,275.366089 251.586792,233.084106 209.314789,190.816010 
	C206.825287,188.326767 204.018753,185.909317 207.742249,182.038788 
	C208.117218,181.963638 208.560181,182.002106 208.766815,182.479645 
	C210.189758,185.348526 210.895676,188.248245 212.697083,190.056870 
	C257.357971,234.896729 302.133453,279.622437 346.892578,324.364441 
	C352.061981,329.531921 352.953339,329.522583 358.201080,324.276794 
	C397.306274,285.186279 436.398621,246.082916 475.521301,207.009872 
	C481.021667,201.516479 486.909912,196.388077 492.118561,190.637772 
	C494.131958,188.414963 494.754333,184.932175 496.010376,182.023407 
z"/>
<path fill="#E8E8E8" opacity="1.000000" stroke="none" 
	d="
M376.914734,349.453369 
	C377.555206,349.568481 378.136597,350.068115 378.830750,351.238556 
	C380.055115,354.518555 380.521332,357.771454 382.380219,359.635376 
	C397.662842,374.959412 413.302399,389.926727 428.646149,405.190735 
	C458.183197,434.574341 487.594940,464.083923 517.064697,493.535187 
	C521.963013,498.430420 523.034363,498.396545 528.028198,493.459930 
	C555.451233,466.351349 582.916748,439.285583 610.294678,412.131561 
	C627.924927,394.645447 645.391113,376.993774 663.036682,359.523254 
	C665.415039,357.168488 666.552246,354.790436 665.758240,351.548462 
	C666.254883,350.955048 666.751465,350.361633 667.520142,349.659851 
	C669.909302,353.467438 669.139832,356.555359 665.880493,359.740692 
	C653.324219,372.011841 640.992554,384.512695 628.576599,396.927429 
	C595.440552,430.060181 562.305603,463.193970 529.166748,496.323914 
	C524.207520,501.281830 523.116699,501.387421 517.431885,497.200836 
	C515.703796,495.928101 514.054016,494.513855 512.535461,492.997070 
	C475.888977,456.392029 439.265167,419.764282 402.637329,383.140564 
	C394.908112,375.412170 387.313751,367.541595 379.385406,360.023193 
	C376.141663,356.947144 375.139709,353.872070 376.914734,349.453369 
z"/>
<path fill="#E9E9E9" opacity="1.000000" stroke="none" 
	d="
M35.774063,351.027161 
	C36.150917,350.950409 36.578796,350.963226 36.786133,351.437195 
	C38.376911,354.800079 39.139572,358.291626 41.254631,360.470306 
	C49.101807,368.553436 57.517559,376.080658 65.498627,384.038483 
	C101.842743,420.276703 138.111145,456.590881 174.408127,492.876373 
	C180.269043,498.735382 181.691315,498.755524 187.419724,493.029358 
	C231.967712,448.498871 276.513092,403.965759 321.057892,359.432037 
	C322.000488,358.489685 323.399506,357.673615 323.740540,356.543579 
	C324.166046,355.133759 323.713623,353.458923 323.640259,351.898529 
	C324.175690,351.239197 324.711090,350.579865 325.546204,349.803406 
	C329.054688,353.905182 327.505707,357.114746 324.097900,360.485077 
	C306.811646,377.581299 289.730133,394.884430 272.456879,411.993927 
	C260.349152,423.986908 247.965790,435.701569 235.854782,447.691284 
	C219.345779,464.034821 202.985779,480.528839 186.546417,496.942841 
	C182.222702,501.259918 179.862854,501.320953 175.651642,497.141907 
	C129.406647,451.250549 83.176956,405.343750 36.941895,359.442352 
	C34.497883,357.015991 32.167156,354.577362 35.774063,351.027161 
z"/>
<path fill="#C8C8C8" opacity="1.000000" stroke="none" 
	d="
M495.684937,182.108185 
	C494.754333,184.932175 494.131958,188.414963 492.118561,190.637772 
	C486.909912,196.388077 481.021667,201.516479 475.521301,207.009872 
	C436.398621,246.082916 397.306274,285.186279 358.201080,324.276794 
	C352.953339,329.522583 352.061981,329.531921 346.892578,324.364441 
	C302.133453,279.622437 257.357971,234.896729 212.697083,190.056870 
	C210.895676,188.248245 210.189758,185.348526 208.969711,182.570511 
	C213.042664,186.033005 217.209076,189.791962 221.182190,193.745193 
	C263.827332,236.176895 306.441345,278.639893 349.068451,321.089752 
	C350.123230,322.140106 351.230408,323.137909 352.641357,324.470123 
	C400.285767,276.972900 447.822632,229.582916 495.684937,182.108185 
z"/>
<path fill="#C7C7C7" opacity="1.000000" stroke="none" 
	d="
M323.336914,352.011047 
	C323.713623,353.458923 324.166046,355.133759 323.740540,356.543579 
	C323.399506,357.673615 322.000488,358.489685 321.057892,359.432037 
	C276.513092,403.965759 231.967712,448.498871 187.419724,493.029358 
	C181.691315,498.755524 180.269043,498.735382 174.408127,492.876373 
	C138.111145,456.590881 101.842743,420.276703 65.498627,384.038483 
	C57.517559,376.080658 49.101807,368.553436 41.254631,360.470306 
	C39.139572,358.291626 38.376911,354.800079 36.983810,351.519287 
	C45.526051,359.437531 54.157536,367.667542 62.616177,376.071564 
	C100.896393,414.104431 139.126770,452.187469 177.381958,490.245514 
	C178.421936,491.280151 179.539566,492.236786 180.961227,493.542206 
	C228.431503,446.290375 275.732574,399.206970 323.336914,352.011047 
z"/>
<path fill="#C6C6C6" opacity="1.000000" stroke="none" 
	d="
M665.448242,351.694336 
	C666.552246,354.790436 665.415039,357.168488 663.036682,359.523254 
	C645.391113,376.993774 627.924927,394.645447 610.294678,412.131561 
	C582.916748,439.285583 555.451233,466.351349 528.028198,493.459930 
	C523.034363,498.396545 521.963013,498.430420 517.064697,493.535187 
	C487.594940,464.083923 458.183197,434.574341 428.646149,405.190735 
	C413.302399,389.926727 397.662842,374.959412 382.380219,359.635376 
	C380.521332,357.771454 380.055115,354.518555 378.950165,351.504395 
	C390.825836,362.762909 402.749023,374.371887 414.553558,386.100281 
	C449.536316,420.857361 484.471710,455.662109 519.429749,490.444092 
	C520.367126,491.376770 521.351807,492.261932 522.677673,493.511597 
	C570.229431,446.223267 617.683838,399.031738 665.448242,351.694336 
z"/>
</svg>