<svg version="1.1" id="Layer_1" xmlns="http://www.w3.org/2000/svg" xmlns:xlink="http://www.w3.org/1999/xlink" x="0px" y="0px"
	 width="100%" viewBox="0 0 800 800" enable-background="new 0 0 800 800" xml:space="preserve">
<path fill="#000000" opacity="1.000000" stroke="none" 
	d="
M248.753799,471.246185 
	C221.183563,443.667603 193.861160,416.341187 166.543518,389.010040 
	C161.809174,384.273407 161.719986,384.164581 166.272934,379.664948 
	C198.961197,347.359711 231.727158,315.132904 264.352661,282.764496 
	C267.337646,279.803070 268.925385,281.083527 271.213776,283.346527 
	C297.028076,308.874542 322.901062,334.343231 348.767334,359.818665 
	C355.767090,366.712646 362.721924,373.655151 369.849182,380.415314 
	C372.852570,383.263977 372.588470,385.246399 369.683167,388.136414 
	C336.972839,420.675018 304.343475,453.295471 271.827789,486.028442 
	C268.596588,489.281219 266.544952,489.440308 263.447083,486.019501 
	C258.869049,480.964325 253.840149,476.317474 248.753799,471.246185 
z"/>
<path fill="#000000" opacity="1.000000" stroke="none" 
	d="
M331.959351,554.036987 
	C321.268616,543.493713 310.904694,533.124573 300.353210,522.949951 
	C297.509552,520.207886 297.023468,518.387024 300.123474,515.308228 
	C333.218750,482.439636 366.195648,449.451691 399.135681,416.427368 
	C401.476379,414.080658 403.103088,413.590820 405.646362,416.186188 
	C438.519928,449.732910 471.471619,483.203094 504.387665,516.708252 
	C505.062500,517.395142 505.547699,518.268433 505.989929,518.874634 
	C505.708862,520.650574 504.539154,521.424744 503.622894,522.342896 
	C471.266998,554.763489 438.856750,587.130127 406.592896,619.641968 
	C403.392029,622.867432 401.648621,622.945007 398.325378,619.617432 
	C376.432678,597.695984 354.282196,576.032043 331.959351,554.036987 
z"/>
<path fill="#000000" opacity="1.000000" stroke="none" 
	d="
M360.301666,313.711487 
	C339.317413,292.350800 318.582977,271.238495 297.688660,249.963348 
	C298.674683,247.920731 300.886383,246.333511 302.746246,244.471313 
	C334.529205,212.648087 366.407623,180.919632 398.056091,148.963394 
	C401.774567,145.208801 403.698975,145.682800 407.109009,149.170334 
	C438.899292,181.682861 470.807861,214.080460 502.843414,246.351273 
	C506.315918,249.849289 505.994049,251.834900 502.675537,255.132675 
	C470.416656,287.189789 438.265289,319.355652 406.227173,351.633362 
	C403.158569,354.724945 401.397339,354.304657 398.611298,351.514465 
	C386.018280,338.902802 373.254059,326.462128 360.301666,313.711487 
z"/>
<path fill="#000000" opacity="1.000000" stroke="none" 
	d="
M608.491943,416.495056 
	C585.216125,440.113373 562.157593,463.451202 539.203674,486.891632 
	C536.679688,489.469177 535.118469,489.127319 532.746704,486.721741 
	C500.353790,453.866638 467.904633,421.066803 435.380096,388.342041 
	C432.407410,385.350983 432.146118,383.346344 435.320618,380.190247 
	C467.569305,348.128265 499.717438,315.964752 531.774048,283.710693 
	C535.024536,280.440216 537.065918,280.568726 540.268616,283.792267 
	C571.844727,315.573578 603.558472,347.218170 635.235352,378.899323 
	C640.607056,384.271698 640.590820,384.245941 635.172058,389.673431 
	C626.345215,398.514343 617.548950,407.385864 608.491943,416.495056 
z"/>
</svg>